<svg xmlns:dc="http://purl.org/dc/elements/1.1/" xmlns:cc="http://creativecommons.org/ns#" xmlns:rdf="http://www.w3.org/1999/02/22-rdf-syntax-ns#" xmlns:svg="http://www.w3.org/2000/svg" xmlns="http://www.w3.org/2000/svg" xmlns:xlink="http://www.w3.org/1999/xlink" id="svg466187" viewBox="0 0 1024 768" height="768px" width="1024px" version="1.1">
  <metadata id="metadata466193">
    <rdf:rdf>
      <cc:work rdf:about="">
        <dc:format>image/svg+xml</dc:format>
        <dc:type rdf:resource="http://purl.org/dc/dcmitype/StillImage"></dc:type>
      </cc:work>
    </rdf:rdf>
  </metadata>
  <defs id="defs466191"></defs>
  <linearGradient spreadMethod="pad" y2="30%" x2="-10%" y1="120%" x1="30%" id="3d_gradient2-logo-f6989a18-a110-49a1-b29e-26877fcf50da">
    <stop id="stop466168" stop-opacity="1" stop-color="#ffffff" offset="0%"></stop>
    <stop id="stop466170" stop-opacity="1" stop-color="#000000" offset="100%"></stop>
  </linearGradient>
  <linearGradient gradientTransform="rotate(-30)" spreadMethod="pad" y2="30%" x2="-10%" y1="120%" x1="30%" id="3d_gradient3-logo-f6989a18-a110-49a1-b29e-26877fcf50da">
    <stop id="stop466173" stop-opacity="1" stop-color="#ffffff" offset="0%"></stop>
    <stop id="stop466175" stop-opacity="1" stop-color="#cccccc" offset="50%"></stop>
    <stop id="stop466177" stop-opacity="1" stop-color="#000000" offset="100%"></stop>
  </linearGradient>
  <g id="logo-group">
    <image xlink:href="" id="container" x="272" y="144" width="480" height="480" transform="translate(0 0)" style="display: none;"></image>
    <g id="logo-center" transform="translate(0 0)">
      <image xlink:href="" id="icon_container" x="0" y="0" style="display: none;"></image>
      <g id="slogan" style="font-style:normal;font-weight:400;font-size:32px;line-height:1;font-family:'PT Sans Caption';font-variant-ligatures:none;text-align:center;text-anchor:middle" transform="translate(0 0)">
        <path id="path466195" style="font-style:normal;font-weight:400;font-size:32px;line-height:1;font-family:'PT Sans Caption';font-variant-ligatures:none;text-align:center;text-anchor:middle" d="m 289.19175,-22.4 h 13.536 v 2.752 h -10.336 v 7.136 h 9.6 v 2.752 h -9.6 V 0 h -3.2 z" stroke-width="0" stroke-linejoin="miter" stroke-miterlimit="2" fill="#6989fa" stroke="#6989fa" transform="translate(5.684341886080802e-14 384.75600000000003) translate(344.46237499999995 56.016000000000005) scale(0.75) translate(-289.19175 22.4)"></path>
        <path id="path466197" style="font-style:normal;font-weight:400;font-size:32px;line-height:1;font-family:'PT Sans Caption';font-variant-ligatures:none;text-align:center;text-anchor:middle" d="m 306.32625,-8.384 q 0,-2.08 0.544,-3.712 0.544,-1.664 1.6,-2.816 1.056,-1.152 2.56,-1.76 1.536,-0.608 3.488,-0.608 2.048,0 3.584,0.672 1.536,0.672 2.56,1.888 1.024,1.184 1.504,2.816 0.512,1.6 0.512,3.52 0,2.048 -0.576,3.68 -0.544,1.632 -1.6,2.784 -1.024,1.152 -2.56,1.76 -1.504,0.608 -3.424,0.608 -2.112,0 -3.648,-0.672 -1.536,-0.672 -2.56,-1.856 -0.992,-1.184 -1.504,-2.784 -0.48,-1.632 -0.48,-3.52 z m 3.136,0 q 0,1.184 0.256,2.336 0.288,1.12 0.896,2.016 0.608,0.896 1.568,1.44 0.96,0.544 2.368,0.544 4.992,0 4.992,-6.336 0,-1.248 -0.288,-2.4 -0.256,-1.152 -0.864,-2.016 -0.576,-0.896 -1.536,-1.44 -0.96,-0.544 -2.304,-0.544 -2.496,0 -3.808,1.6 -1.28,1.568 -1.28,4.8 z" stroke-width="0" stroke-linejoin="miter" stroke-miterlimit="2" fill="#6989fa" stroke="#6989fa" transform="translate(5.684341886080802e-14 384.75600000000003) translate(357.3132499999999 59.855999999999995) scale(0.75) translate(-306.32625 17.28)"></path>
        <path id="path466199" style="font-style:normal;font-weight:400;font-size:32px;line-height:1;font-family:'PT Sans Caption';font-variant-ligatures:none;text-align:center;text-anchor:middle" d="m 336.17775,-14.016 q -0.544,-0.16 -1.056,-0.288 -0.512,-0.128 -0.96,-0.128 -1.696,0 -2.656,0.864 -0.928,0.864 -1.152,2.176 V 0 h -2.944 v -16.8 h 2.048 l 0.576,2.24 h 0.288 q 0.736,-1.248 1.696,-1.92 0.992,-0.704 2.464,-0.704 0.448,0 1.056,0.096 0.608,0.064 1.216,0.256 z" stroke-width="0" stroke-linejoin="miter" stroke-miterlimit="2" fill="#6989fa" stroke="#6989fa" transform="translate(5.684341886080802e-14 384.75600000000003) translate(373.12587499999995 59.928) scale(0.75) translate(-327.40975 17.184)"></path>
        <path id="path466201" style="font-style:normal;font-weight:400;font-size:32px;line-height:1;font-family:'PT Sans Caption';font-variant-ligatures:none;text-align:center;text-anchor:middle" d="m 353.96525,0.096 q 0,3.296 -1.952,4.896 -1.92,1.632 -5.664,1.632 -2.176,0 -3.52,-0.256 -1.344,-0.256 -2.304,-0.704 l 0.704,-2.656 q 0.416,0.192 0.96,0.384 0.544,0.224 1.152,0.384 0.608,0.16 1.216,0.256 0.64,0.096 1.216,0.096 1.568,0 2.592,-0.288 1.024,-0.256 1.632,-0.832 0.608,-0.576 0.832,-1.472 0.224,-0.896 0.224,-2.144 v -1.184 h -0.352 q -0.512,0.832 -1.792,1.344 -1.28,0.512 -3.104,0.512 -3.648,0 -5.376,-1.952 -1.728,-1.984 -1.728,-6.368 0,-4.32 2.24,-6.656 2.24,-2.336 6.656,-2.336 2.112,0 3.616,0.256 1.536,0.256 2.752,0.672 z m -7.52,-2.528 q 1.952,0 3.04,-0.992 1.12,-0.992 1.536,-2.592 v -8.256 q -0.736,-0.224 -1.696,-0.352 -0.96,-0.128 -2.176,-0.128 -2.496,0 -3.904,1.6 -1.408,1.568 -1.408,4.832 0,2.816 1.024,4.352 1.056,1.536 3.584,1.536 z" stroke-width="0" stroke-linejoin="miter" stroke-miterlimit="2" fill="#6989fa" stroke="#6989fa" transform="translate(5.684341886080802e-14 384.75600000000003) translate(381.5945 59.879999999999995) scale(0.75) translate(-338.70125 17.248)"></path>
        <path id="path466203" style="font-style:normal;font-weight:400;font-size:32px;line-height:1;font-family:'PT Sans Caption';font-variant-ligatures:none;text-align:center;text-anchor:middle" d="m 373.32375,-1.376 q -1.12,0.832 -2.784,1.344 -1.664,0.48 -3.616,0.48 -2.112,0 -3.68,-0.608 -1.536,-0.64 -2.528,-1.792 -0.992,-1.152 -1.472,-2.784 -0.48,-1.632 -0.48,-3.648 0,-4.32 2.112,-6.592 2.144,-2.304 6.08,-2.304 1.248,0 2.496,0.288 1.248,0.256 2.24,1.024 0.992,0.736 1.6,2.048 0.64,1.312 0.64,3.424 0,0.512 -0.032,1.184 -0.032,0.672 -0.128,1.312 h -12 q 0.064,2.944 1.408,4.448 1.344,1.504 4.576,1.504 1.344,0 2.56,-0.448 1.216,-0.48 1.888,-1.12 z m -2.208,-8.736 q 0.064,-2.56 -1.056,-3.616 -1.088,-1.056 -3.072,-1.056 -2.24,0 -3.552,1.056 -1.312,1.056 -1.536,3.616 z" stroke-width="0" stroke-linejoin="miter" stroke-miterlimit="2" fill="#6989fa" stroke="#6989fa" transform="translate(5.684341886080802e-14 384.75600000000003) translate(396.6413749999999 59.855999999999995) scale(0.75) translate(-358.76375 17.28)"></path>
        <path id="path466205" style="font-style:normal;font-weight:400;font-size:32px;line-height:1;font-family:'PT Sans Caption';font-variant-ligatures:none;text-align:center;text-anchor:middle" d="m 392.69575,-8.768 -8.128,-13.632 h 3.744 l 5.6,9.504 0.544,2.048 h 0.064 l 0.608,-2.112 5.344,-9.44 h 3.392 l -7.968,13.6 V 0 h -3.2 z" stroke-width="0" stroke-linejoin="miter" stroke-miterlimit="2" fill="#6989fa" stroke="#6989fa" transform="translate(5.684341886080802e-14 384.75600000000003) translate(415.9943749999999 56.016000000000005) scale(0.75) translate(-384.56775 22.4)"></path>
        <path id="path466207" style="font-style:normal;font-weight:400;font-size:32px;line-height:1;font-family:'PT Sans Caption';font-variant-ligatures:none;text-align:center;text-anchor:middle" d="m 403.26375,-8.384 q 0,-2.08 0.544,-3.712 0.544,-1.664 1.6,-2.816 1.056,-1.152 2.56,-1.76 1.536,-0.608 3.488,-0.608 2.048,0 3.584,0.672 1.536,0.672 2.56,1.888 1.024,1.184 1.504,2.816 0.512,1.6 0.512,3.52 0,2.048 -0.576,3.68 -0.544,1.632 -1.6,2.784 -1.024,1.152 -2.56,1.76 -1.504,0.608 -3.424,0.608 -2.112,0 -3.648,-0.672 -1.536,-0.672 -2.56,-1.856 -0.992,-1.184 -1.504,-2.784 -0.48,-1.632 -0.48,-3.52 z m 3.136,0 q 0,1.184 0.256,2.336 0.288,1.12 0.896,2.016 0.608,0.896 1.568,1.44 0.96,0.544 2.368,0.544 4.992,0 4.992,-6.336 0,-1.248 -0.288,-2.4 -0.256,-1.152 -0.864,-2.016 -0.576,-0.896 -1.536,-1.44 -0.96,-0.544 -2.304,-0.544 -2.496,0 -3.808,1.6 -1.28,1.568 -1.28,4.8 z" stroke-width="0" stroke-linejoin="miter" stroke-miterlimit="2" fill="#6989fa" stroke="#6989fa" transform="translate(5.684341886080802e-14 384.75600000000003) translate(430.01637499999987 59.855999999999995) scale(0.75) translate(-403.26375 17.28)"></path>
        <path id="path466209" style="font-style:normal;font-weight:400;font-size:32px;line-height:1;font-family:'PT Sans Caption';font-variant-ligatures:none;text-align:center;text-anchor:middle" d="m 427.29125,-16.8 v 9.248 q 0,1.344 0.16,2.368 0.16,1.024 0.576,1.728 0.416,0.672 1.12,1.056 0.736,0.352 1.856,0.352 1.92,0 3.136,-1.088 1.216,-1.088 1.856,-2.688 V -16.8 h 2.944 v 12.032 q 0,1.216 0.096,2.496 0.096,1.248 0.288,2.272 h -1.984 l -0.768,-2.784 h -0.32 q -0.832,1.44 -2.304,2.336 -1.472,0.896 -3.68,0.896 -1.472,0 -2.592,-0.352 -1.088,-0.352 -1.856,-1.184 -0.736,-0.864 -1.12,-2.272 -0.352,-1.408 -0.352,-3.52 v -9.92 z" stroke-width="0" stroke-linejoin="miter" stroke-miterlimit="2" fill="#6989fa" stroke="#6989fa" transform="translate(5.684341886080802e-14 384.75600000000003) translate(445.82899999999984 60.215999999999994) scale(0.75) translate(-424.34725 16.8)"></path>
        <path id="path466211" style="font-style:normal;font-weight:400;font-size:32px;line-height:1;font-family:'PT Sans Caption';font-variant-ligatures:none;text-align:center;text-anchor:middle" d="m 453.74025,-14.016 q -0.544,-0.16 -1.056,-0.288 -0.512,-0.128 -0.96,-0.128 -1.696,0 -2.656,0.864 -0.928,0.864 -1.152,2.176 V 0 h -2.944 v -16.8 h 2.048 l 0.576,2.24 h 0.288 q 0.736,-1.248 1.696,-1.92 0.992,-0.704 2.464,-0.704 0.448,0 1.056,0.096 0.608,0.064 1.216,0.256 z" stroke-width="0" stroke-linejoin="miter" stroke-miterlimit="2" fill="#6989fa" stroke="#6989fa" transform="translate(5.684341886080802e-14 384.75600000000003) translate(461.29774999999984 59.928) scale(0.75) translate(-444.97225 17.184)"></path>
        <path id="path466213" style="font-style:normal;font-weight:400;font-size:32px;line-height:1;font-family:'PT Sans Caption';font-variant-ligatures:none;text-align:center;text-anchor:middle" d="m 474.79225,-11.296 h 8.384 v 9.888 q -0.576,0.448 -1.376,0.8 -0.8,0.32 -1.728,0.544 -0.896,0.224 -1.856,0.352 -0.96,0.128 -1.888,0.128 -2.304,0 -4.288,-0.672 -1.952,-0.704 -3.424,-2.144 -1.44,-1.44 -2.272,-3.616 -0.832,-2.208 -0.832,-5.184 0,-3.104 0.992,-5.312 1.024,-2.208 2.624,-3.616 1.6,-1.408 3.552,-2.048 1.984,-0.64 3.936,-0.64 2.112,0 3.488,0.256 1.408,0.224 2.336,0.576 l -0.768,2.72 q -1.664,-0.736 -4.8,-0.736 -1.44,0 -2.88,0.448 -1.408,0.448 -2.56,1.504 -1.12,1.024 -1.824,2.72 -0.704,1.664 -0.704,4.128 0,2.272 0.576,3.936 0.608,1.664 1.664,2.752 1.056,1.088 2.496,1.6 1.44,0.512 3.136,0.512 1.056,0 2.016,-0.192 0.992,-0.224 1.728,-0.608 v -5.664 l -5.728,-0.576 z" stroke-width="0" stroke-linejoin="miter" stroke-miterlimit="2" fill="#6989fa" stroke="#6989fa" transform="translate(5.684341886080802e-14 384.75600000000003) translate(476.7027499999998 55.70400000000001) scale(0.75) translate(-465.51225 22.816)"></path>
        <path id="path466215" style="font-style:normal;font-weight:400;font-size:32px;line-height:1;font-family:'PT Sans Caption';font-variant-ligatures:none;text-align:center;text-anchor:middle" d="m 488.67925,-16.8 h 2.944 V 0 h -2.944 z m -0.608,-4 q 0,-0.736 0.576,-1.312 0.576,-0.608 1.504,-0.608 0.928,0 1.536,0.608 0.608,0.576 0.608,1.312 0,0.736 -0.608,1.312 -0.608,0.544 -1.536,0.544 -0.928,0 -1.504,-0.544 -0.576,-0.576 -0.576,-1.312 z" stroke-width="0" stroke-linejoin="miter" stroke-miterlimit="2" fill="#6989fa" stroke="#6989fa" transform="translate(5.684341886080802e-14 384.75600000000003) translate(493.62199999999984 55.775999999999996) scale(0.75) translate(-488.07125 22.72)"></path>
        <path id="path466217" style="font-style:normal;font-weight:400;font-size:32px;line-height:1;font-family:'PT Sans Caption';font-variant-ligatures:none;text-align:center;text-anchor:middle" d="m 495.92425,-16.8 h 2.848 v -3.392 l 2.944,-0.768 v 4.16 h 5.056 v 2.496 h -5.056 v 8.576 q 0,2.016 0.512,2.848 0.512,0.832 1.76,0.832 0.8,0 1.44,-0.16 0.672,-0.192 1.504,-0.48 l 0.672,2.08 q -1.024,0.448 -2.208,0.736 -1.152,0.32 -2.496,0.32 -2.24,0 -3.2,-1.216 -0.928,-1.216 -0.928,-3.968 v -9.568 h -2.848 z" stroke-width="0" stroke-linejoin="miter" stroke-miterlimit="2" fill="#6989fa" stroke="#6989fa" transform="translate(5.684341886080802e-14 384.75600000000003) translate(499.51174999999984 57.096000000000004) scale(0.75) translate(-495.92425 20.96)"></path>
        <path id="path466219" style="font-style:normal;font-weight:400;font-size:32px;line-height:1;font-family:'PT Sans Caption';font-variant-ligatures:none;text-align:center;text-anchor:middle" d="m 531.03025,-5.856 h -8.864 L 519.79825,0 h -3.136 l 9.216,-22.72 h 1.664 l 9.248,22.72 h -3.328 z m -7.904,-2.688 h 6.976 l -2.592,-6.368 -0.864,-3.424 h -0.064 l -0.864,3.488 z" stroke-width="0" stroke-linejoin="miter" stroke-miterlimit="2" fill="#6989fa" stroke="#6989fa" transform="translate(5.684341886080802e-14 384.75600000000003) translate(515.0652499999999 55.775999999999996) scale(0.75) translate(-516.66225 22.72)"></path>
        <path id="path466221" style="font-style:normal;font-weight:400;font-size:32px;line-height:1;font-family:'PT Sans Caption';font-variant-ligatures:none;text-align:center;text-anchor:middle" d="m 552.08175,-1.152 q -1.12,0.8 -2.624,1.184 -1.504,0.416 -3.168,0.416 -2.112,0 -3.616,-0.64 -1.472,-0.64 -2.4,-1.792 -0.928,-1.152 -1.344,-2.784 -0.416,-1.632 -0.416,-3.616 0,-4.256 2.048,-6.56 2.08,-2.336 5.952,-2.336 1.696,0 2.944,0.32 1.248,0.288 2.24,0.736 l -0.768,2.4 q -0.864,-0.448 -1.888,-0.704 -0.992,-0.256 -2.176,-0.256 -5.216,0 -5.216,6.4 0,1.216 0.288,2.368 0.288,1.12 0.928,2.016 0.64,0.864 1.664,1.408 1.056,0.544 2.56,0.544 1.344,0 2.336,-0.352 1.024,-0.384 1.696,-0.896 z" stroke-width="0" stroke-linejoin="miter" stroke-miterlimit="2" fill="#6989fa" stroke="#6989fa" transform="translate(5.684341886080802e-14 384.75600000000003) translate(531.4538749999998 59.855999999999995) scale(0.75) translate(-538.51375 17.28)"></path>
        <path id="path466223" style="font-style:normal;font-weight:400;font-size:32px;line-height:1;font-family:'PT Sans Caption';font-variant-ligatures:none;text-align:center;text-anchor:middle" d="m 568.28325,0 v -9.28 q 0,-1.376 -0.192,-2.368 -0.16,-1.024 -0.64,-1.696 -0.448,-0.672 -1.248,-0.992 -0.768,-0.32 -1.952,-0.32 -0.832,0 -1.632,0.288 -0.8,0.288 -1.472,0.8 -0.672,0.512 -1.152,1.248 -0.48,0.704 -0.704,1.6 V 0 h -2.944 v -22.4 h 2.944 v 7.68 h 0.352 q 0.96,-1.152 2.304,-1.856 1.344,-0.704 3.328,-0.704 1.536,0 2.656,0.352 1.12,0.32 1.856,1.184 0.736,0.832 1.088,2.272 0.352,1.408 0.352,3.552 V 0 Z" stroke-width="0" stroke-linejoin="miter" stroke-miterlimit="2" fill="#6989fa" stroke="#6989fa" transform="translate(5.684341886080802e-14 384.75600000000003) translate(544.829 56.016000000000005) scale(0.75) translate(-556.34725 22.4)"></path>
        <path id="path466225" style="font-style:normal;font-weight:400;font-size:32px;line-height:1;font-family:'PT Sans Caption';font-variant-ligatures:none;text-align:center;text-anchor:middle" d="m 577.67925,-16.8 h 2.944 V 0 h -2.944 z m -0.608,-4 q 0,-0.736 0.576,-1.312 0.576,-0.608 1.504,-0.608 0.928,0 1.536,0.608 0.608,0.576 0.608,1.312 0,0.736 -0.608,1.312 -0.608,0.544 -1.536,0.544 -0.928,0 -1.504,-0.544 -0.576,-0.576 -0.576,-1.312 z" stroke-width="0" stroke-linejoin="miter" stroke-miterlimit="2" fill="#6989fa" stroke="#6989fa" transform="translate(5.684341886080802e-14 384.75600000000003) translate(560.3719999999998 55.775999999999996) scale(0.75) translate(-577.07125 22.72)"></path>
        <path id="path466227" style="font-style:normal;font-weight:400;font-size:32px;line-height:1;font-family:'PT Sans Caption';font-variant-ligatures:none;text-align:center;text-anchor:middle" d="m 600.63625,-1.376 q -1.12,0.832 -2.784,1.344 -1.664,0.48 -3.616,0.48 -2.112,0 -3.68,-0.608 -1.536,-0.64 -2.528,-1.792 -0.992,-1.152 -1.472,-2.784 -0.48,-1.632 -0.48,-3.648 0,-4.32 2.112,-6.592 2.144,-2.304 6.08,-2.304 1.248,0 2.496,0.288 1.248,0.256 2.24,1.024 0.992,0.736 1.6,2.048 0.64,1.312 0.64,3.424 0,0.512 -0.032,1.184 -0.032,0.672 -0.128,1.312 h -12 q 0.064,2.944 1.408,4.448 1.344,1.504 4.576,1.504 1.344,0 2.56,-0.448 1.216,-0.48 1.888,-1.12 z m -2.208,-8.736 q 0.064,-2.56 -1.056,-3.616 -1.088,-1.056 -3.072,-1.056 -2.24,0 -3.552,1.056 -1.312,1.056 -1.536,3.616 z" stroke-width="0" stroke-linejoin="miter" stroke-miterlimit="2" fill="#6989fa" stroke="#6989fa" transform="translate(5.684341886080802e-14 384.75600000000003) translate(567.1257499999998 59.855999999999995) scale(0.75) translate(-586.07625 17.28)"></path>
        <path id="path466229" style="font-style:normal;font-weight:400;font-size:32px;line-height:1;font-family:'PT Sans Caption';font-variant-ligatures:none;text-align:center;text-anchor:middle" d="m 610.33775,-7.136 1.12,3.456 1.056,-3.52 4,-9.6 h 3.2 l -7.84,17.152 h -1.28 l -8,-17.152 h 3.456 z" stroke-width="0" stroke-linejoin="miter" stroke-miterlimit="2" fill="#6989fa" stroke="#6989fa" transform="translate(5.684341886080802e-14 384.75600000000003) translate(579.5138749999999 60.215999999999994) scale(0.75) translate(-602.59375 16.8)"></path>
        <path id="path466231" style="font-style:normal;font-weight:400;font-size:32px;line-height:1;font-family:'PT Sans Caption';font-variant-ligatures:none;text-align:center;text-anchor:middle" d="m 636.19875,-1.376 q -1.12,0.832 -2.784,1.344 -1.664,0.48 -3.616,0.48 -2.112,0 -3.68,-0.608 -1.536,-0.64 -2.528,-1.792 -0.992,-1.152 -1.472,-2.784 -0.48,-1.632 -0.48,-3.648 0,-4.32 2.112,-6.592 2.144,-2.304 6.08,-2.304 1.248,0 2.496,0.288 1.248,0.256 2.24,1.024 0.992,0.736 1.6,2.048 0.64,1.312 0.64,3.424 0,0.512 -0.032,1.184 -0.032,0.672 -0.128,1.312 h -12 q 0.064,2.944 1.408,4.448 1.344,1.504 4.576,1.504 1.344,0 2.56,-0.448 1.216,-0.48 1.888,-1.12 z m -2.208,-8.736 q 0.064,-2.56 -1.056,-3.616 -1.088,-1.056 -3.072,-1.056 -2.24,0 -3.552,1.056 -1.312,1.056 -1.536,3.616 z" stroke-width="0" stroke-linejoin="miter" stroke-miterlimit="2" fill="#6989fa" stroke="#6989fa" transform="translate(5.684341886080802e-14 384.75600000000003) translate(593.7976249999999 59.855999999999995) scale(0.75) translate(-621.63875 17.28)"></path>
        <path id="path466233" style="font-style:normal;font-weight:400;font-size:32px;line-height:1;font-family:'PT Sans Caption';font-variant-ligatures:none;text-align:center;text-anchor:middle" d="m 652.53975,0 v -9.216 q 0,-1.344 -0.128,-2.368 -0.128,-1.024 -0.512,-1.696 -0.384,-0.704 -1.088,-1.024 -0.672,-0.352 -1.76,-0.352 -1.696,0 -2.848,0.96 -1.12,0.928 -1.6,2.4 V 0 h -2.944 v -16.8 h 2.016 l 0.576,2.24 h 0.32 q 1.024,-1.152 2.336,-1.92 1.344,-0.8 3.392,-0.8 1.728,0 2.88,0.736 1.184,0.736 1.792,2.464 0.96,-1.472 2.432,-2.336 1.472,-0.864 3.296,-0.864 1.536,0 2.592,0.352 1.088,0.352 1.76,1.216 0.672,0.864 0.992,2.336 0.32,1.472 0.32,3.712 V 0 h -2.944 v -9.664 q 0,-1.28 -0.16,-2.208 -0.128,-0.928 -0.512,-1.536 -0.384,-0.64 -1.088,-0.928 -0.672,-0.32 -1.792,-0.32 -1.824,0 -2.88,0.96 -1.056,0.96 -1.504,2.88 V 0 Z" stroke-width="0" stroke-linejoin="miter" stroke-miterlimit="2" fill="#6989fa" stroke="#6989fa" transform="translate(5.684341886080802e-14 384.75600000000003) translate(608.813375 59.855999999999995) scale(0.75) translate(-641.65975 17.28)"></path>
        <path id="path466235" style="font-style:normal;font-weight:400;font-size:32px;line-height:1;font-family:'PT Sans Caption';font-variant-ligatures:none;text-align:center;text-anchor:middle" d="m 685.63625,-1.376 q -1.12,0.832 -2.784,1.344 -1.664,0.48 -3.616,0.48 -2.112,0 -3.68,-0.608 -1.536,-0.64 -2.528,-1.792 -0.992,-1.152 -1.472,-2.784 -0.48,-1.632 -0.48,-3.648 0,-4.32 2.112,-6.592 2.144,-2.304 6.08,-2.304 1.248,0 2.496,0.288 1.248,0.256 2.24,1.024 0.992,0.736 1.6,2.048 0.64,1.312 0.64,3.424 0,0.512 -0.032,1.184 -0.032,0.672 -0.128,1.312 h -12 q 0.064,2.944 1.408,4.448 1.344,1.504 4.576,1.504 1.344,0 2.56,-0.448 1.216,-0.48 1.888,-1.12 z m -2.208,-8.736 q 0.064,-2.56 -1.056,-3.616 -1.088,-1.056 -3.072,-1.056 -2.24,0 -3.552,1.056 -1.312,1.056 -1.536,3.616 z" stroke-width="0" stroke-linejoin="miter" stroke-miterlimit="2" fill="#6989fa" stroke="#6989fa" transform="translate(5.684341886080802e-14 384.75600000000003) translate(630.8757499999999 59.855999999999995) scale(0.75) translate(-671.07625 17.28)"></path>
        <path id="path466237" style="font-style:normal;font-weight:400;font-size:32px;line-height:1;font-family:'PT Sans Caption';font-variant-ligatures:none;text-align:center;text-anchor:middle" d="m 703.03325,0 v -9.28 q 0,-2.688 -0.864,-4.032 -0.864,-1.344 -3.072,-1.344 -1.952,0 -3.264,1.024 -1.28,0.992 -1.792,2.56 V 0 h -2.944 v -16.8 h 2.048 l 0.576,2.24 h 0.288 q 0.928,-1.152 2.4,-1.92 1.504,-0.8 3.584,-0.8 1.472,0 2.592,0.352 1.12,0.32 1.856,1.184 0.768,0.832 1.152,2.272 0.384,1.408 0.384,3.584 V 0 Z" stroke-width="0" stroke-linejoin="miter" stroke-miterlimit="2" fill="#6989fa" stroke="#6989fa" transform="translate(5.684341886080802e-14 384.75600000000003) translate(645.8915 59.855999999999995) scale(0.75) translate(-691.09725 17.28)"></path>
        <path id="path466239" style="font-style:normal;font-weight:400;font-size:32px;line-height:1;font-family:'PT Sans Caption';font-variant-ligatures:none;text-align:center;text-anchor:middle" d="m 709.54925,-16.8 h 2.848 v -3.392 l 2.944,-0.768 v 4.16 h 5.056 v 2.496 h -5.056 v 8.576 q 0,2.016 0.512,2.848 0.512,0.832 1.76,0.832 0.8,0 1.44,-0.16 0.672,-0.192 1.504,-0.48 l 0.672,2.08 q -1.024,0.448 -2.208,0.736 -1.152,0.32 -2.496,0.32 -2.24,0 -3.2,-1.216 -0.928,-1.216 -0.928,-3.968 v -9.568 h -2.848 z" stroke-width="0" stroke-linejoin="miter" stroke-miterlimit="2" fill="#6989fa" stroke="#6989fa" transform="translate(5.684341886080802e-14 384.75600000000003) translate(659.7304999999999 57.096000000000004) scale(0.75) translate(-709.54925 20.96)"></path>
        <path id="path466241" style="font-style:normal;font-weight:400;font-size:32px;line-height:1;font-family:'PT Sans Caption';font-variant-ligatures:none;text-align:center;text-anchor:middle" d="m 733.01475,-4.704 q 0,-0.64 -0.32,-1.056 -0.288,-0.448 -0.8,-0.736 -0.512,-0.32 -1.184,-0.544 -0.672,-0.224 -1.408,-0.448 -0.928,-0.256 -1.888,-0.544 -0.928,-0.32 -1.696,-0.832 -0.736,-0.544 -1.216,-1.376 -0.48,-0.832 -0.48,-2.112 0,-2.496 1.472,-3.712 1.504,-1.216 4.192,-1.216 2.016,0 3.392,0.384 1.376,0.384 2.4,0.832 l -0.704,2.496 q -0.864,-0.416 -2.08,-0.8 -1.184,-0.416 -2.624,-0.416 -1.568,0 -2.336,0.512 -0.768,0.512 -0.768,1.856 0,0.544 0.288,0.928 0.288,0.352 0.768,0.64 0.48,0.256 1.12,0.48 0.64,0.192 1.344,0.384 0.96,0.256 1.92,0.608 0.96,0.32 1.76,0.896 0.8,0.544 1.28,1.408 0.512,0.864 0.512,2.176 0,2.368 -1.6,3.872 -1.6,1.472 -4.8,1.472 -2.048,0 -3.584,-0.416 -1.504,-0.416 -2.528,-0.96 l 0.832,-2.56 q 0.896,0.48 2.304,0.96 1.408,0.48 2.848,0.48 1.568,0 2.56,-0.544 1.024,-0.576 1.024,-2.112 z" stroke-width="0" stroke-linejoin="miter" stroke-miterlimit="2" fill="#6989fa" stroke="#6989fa" transform="translate(5.684341886080802e-14 384.75600000000003) translate(670.1536249999999 59.855999999999995) scale(0.75) translate(-723.44675 17.28)"></path>
      </g>
      <g id="title" style="font-style:normal;font-weight:normal;font-size:72px;line-height:1;font-family:Norwester;font-variant-ligatures:none;text-align:center;text-anchor:middle" transform="translate(0 0)">
        <path id="path466244" style="font-style:normal;font-weight:normal;font-size:72px;line-height:1;font-family:Norwester;font-variant-ligatures:none;text-align:center;text-anchor:middle" d="m 422.92813,-10.368 c 0,6.768 3.59999,10.368 10.368,10.368 h 9.50399 c 6.696,0 10.36801,-3.6 10.36801,-10.368 v -20.016 c 0,-0.792 -0.432,-1.152 -1.15201,-1.152 h -12.096 c -0.792,0 -1.152,0.36 -1.152,1.152 v 7.2 c 0,0.72 0.36,1.152 1.152,1.152 h 3.74401 v 9.648 c 0,1.944 -1.00801,2.88 -2.88,2.88 h -5.18401 c -1.872,0 -2.88,-0.936 -2.88,-2.88 v -32.832 c 0,-1.872 0.936,-2.88 2.88,-2.88 h 5.18401 c 1.87199,0 2.88,1.008 2.88,2.88 v 5.472 c 0,0.72 0.36,1.152 1.15199,1.152 h 7.2 c 0.72001,0 1.15201,-0.432 1.15201,-1.152 v -7.488 c 0,-6.768 -3.67201,-10.368 -10.36801,-10.368 h -9.50399 c -6.76801,0 -10.368,3.6 -10.368,10.368 z" stroke-width="0" stroke-linejoin="miter" stroke-miterlimit="2" fill="#6989fa" stroke="#6989fa" transform="translate(0 313.06000000000006) translate(320.48375000000004 -7.600000000000001) scale(2) translate(-422.92813 57.6)"></path>
        <path id="path466246" style="font-style:normal;font-weight:normal;font-size:72px;line-height:1;font-family:Norwester;font-variant-ligatures:none;text-align:center;text-anchor:middle" d="m 494.31837,0 c 0.864,0 1.224,-0.432 1.008,-1.224 l -11.952,-48.168 c -0.144,-0.72 -0.57599,-1.008 -1.224,-1.008 h -10.00799 c -0.64801,0 -1.08001,0.288 -1.224,1.008 l -11.952,48.168 c -0.216,0.792 0.14399,1.224 0.93599,1.224 h 7.056 c 0.64801,0 1.008,-0.36 1.152,-1.008 l 2.232,-9.072 h 13.536 l 2.304,9.072 c 0.144,0.648 0.504,1.008 1.15201,1.008 z m -12.672,-18.432 h -9.072 l 4.536,-19.584 z" stroke-width="0" stroke-linejoin="miter" stroke-miterlimit="2" fill="#7b96f5" stroke="#7b96f5" transform="translate(0 313.06000000000006) translate(398.43676999999997 6.800000000000004) scale(2) translate(-458.90464 50.4)"></path>
        <path id="path466248" style="font-style:normal;font-weight:normal;font-size:72px;line-height:1;font-family:Norwester;font-variant-ligatures:none;text-align:center;text-anchor:middle" d="m 523.93962,-50.4 c -0.792,0 -1.15199,0.432 -1.15199,1.152 v 27.288 l -13.53601,-27.504 c -0.288,-0.648 -0.64799,-0.936 -1.296,-0.936 h -5.688 c -0.72,0 -1.15199,0.432 -1.15199,1.152 v 48.096 c 0,0.72 0.43199,1.152 1.15199,1.152 h 6.768 c 0.792,0 1.15201,-0.432 1.15201,-1.152 V -28.44 l 13.53599,27.504 c 0.288,0.648 0.648,0.936 1.29601,0.936 h 5.68799 c 0.72001,0 1.15201,-0.432 1.15201,-1.152 v -48.096 c 0,-0.72 -0.432,-1.152 -1.15201,-1.152 z" stroke-width="0" stroke-linejoin="miter" stroke-miterlimit="2" fill="#8ca4f0" stroke="#8ca4f0" transform="translate(0 313.06000000000006) translate(488.85875000000004 6.800000000000004) scale(2) translate(-501.11563 50.4)"></path>
        <path id="path466250" style="font-style:normal;font-weight:normal;font-size:72px;line-height:1;font-family:Norwester;font-variant-ligatures:none;text-align:center;text-anchor:middle" d="m 567.88437,-49.248 c 0,-0.72 -0.432,-1.152 -1.15199,-1.152 h -26.49601 c -0.79199,0 -1.15199,0.432 -1.15199,1.152 v 48.096 c 0,0.72 0.36,1.152 1.15199,1.152 h 7.488 c 0.72001,0 1.15201,-0.432 1.15201,-1.152 V -19.08 h 13.53599 c 0.72001,0 1.15201,-0.36 1.15201,-1.152 v -7.2 c 0,-0.72 -0.432,-1.152 -1.15201,-1.152 h -13.53599 v -12.312 h 17.856 c 0.71999,0 1.15199,-0.432 1.15199,-1.152 z" stroke-width="0" stroke-linejoin="miter" stroke-miterlimit="2" fill="#9eb1eb" stroke="#9eb1eb" transform="translate(0 313.06000000000006) translate(570.79625 6.800000000000004) scale(2) translate(-539.08438 50.4)"></path>
        <path id="path466252" style="font-style:normal;font-weight:normal;font-size:72px;line-height:1;font-family:Norwester;font-variant-ligatures:none;text-align:center;text-anchor:middle" d="m 601.29237,-50.4 c 0.79201,0 1.15201,0.432 1.15201,1.152 v 7.2 c 0,0.72 -0.36,1.152 -1.15201,1.152 h -8.35199 v 39.744 c 0,0.792 -0.36001,1.152 -1.15201,1.152 h -7.48799 c -0.72001,0 -1.15201,-0.36 -1.15201,-1.152 v -39.744 h -8.352 c -0.72,0 -1.152,-0.432 -1.152,-1.152 v -7.2 c 0,-0.72 0.432,-1.152 1.152,-1.152 z" stroke-width="0" stroke-linejoin="miter" stroke-miterlimit="2" fill="#afbee6" stroke="#afbee6" transform="translate(0 313.06000000000006) translate(645.9162299999999 6.800000000000004) scale(2) translate(-573.64437 50.4)"></path>
      </g>
      <image xlink:href="" id="icon" x="0" y="0" style="display: none;"></image>
    </g>
  </g>
</svg>
